<?xml version="1.0" encoding="utf-8"?>
<!-- Generator: Adobe Illustrator 26.4.1, SVG Export Plug-In . SVG Version: 6.00 Build 0)  -->
<svg version="1.1" id="Layer_1" xmlns="http://www.w3.org/2000/svg" xmlns:xlink="http://www.w3.org/1999/xlink" x="0px" y="0px"
	 viewBox="0 0 595.28 841.89" style="enable-background:new 0 0 595.28 841.89;" xml:space="preserve">
<style type="text/css">
	.st0{fill:none;stroke:#000000;stroke-width:4;stroke-miterlimit:10;}
</style>
<path class="st0" d="M200.14,268.67c0,0-48.1,151.9,12.66,212.66s100,84.81,130.38,78.48s72.15-21.52,94.94-82.28
	c0,0,40.51-36.71,35.44-93.67c-31.65-56.96,8.86-34.18-45.57-122.78c-6.33-41.77-16.46-54.43-16.46-54.43s-55.61-31.65-83.5-16.46
	c0,0-96.25-8.86-119.03,30.38C200.14,268.67,200.14,268.67,200.14,268.67z"/>
<path class="st0" d="M411.53,206.65c29.11-3.8,88.61,30.38,121.52,68.35s6.33,36.71,8.86,40.51c2.53,3.8,8.86,48.1-34.18,82.28
	c5.06,46.84-7.59,23.16-7.59,23.16l-26.58-37.08c0,0,11.39,70.89-24.05,113.92c0,0,24.05,44.3-6.33,94.94
	c0,0,24.05,50.63,6.33,81.01c0,0-263.29,40.51-443.04,0c0,0,81.2-209.48,129.21-235.44l22.64-33.23"/>
<path class="st0" d="M209,220.57c0,0-116.46,25.06-145.57,96.07c-10.13,41.9,54.43,86.27,64.56,110.29c0,0,36.71,11.36,44.3-84.84
	s27.85-73.42,27.85-73.42"/>
<path class="st0" d="M216.59,386.39c0,0,33.07,34.18,61.47,0C278.07,386.39,259.63,362.34,216.59,386.39z"/>
<path class="st0" d="M374.82,373.43c0,0,7.59-22.48,53.16-6.02C427.99,367.41,406.47,403.5,374.82,373.43z"/>
</svg>
